<svg width="11" height="24" viewBox="0 0 11 24" fill="none" xmlns="http://www.w3.org/2000/svg">
<path d="M1.26411 23.2497C1.12297 21.9898 3.80646 22.3138 4.30115 21.463C4.59783 20.9529 4.40633 19.871 4.44298 19.2405C4.51904 17.9352 4.83867 14.9633 4.21414 13.8329C4.00242 13.4495 2.65981 12.9804 2.14902 12.594C-1.7486 9.64682 0.715286 3.97275 1.38128 0.0897098L8.89834 0.00531061C9.0943 -0.0207887 9.07169 0.0514081 9.13095 0.175804C9.50883 0.968614 9.93672 3.58431 10.1121 4.58456C10.6233 7.50158 11.0837 10.5539 8.33992 12.5943C7.23405 13.4166 6.21725 13.1482 6.03979 14.7819C5.88357 16.2208 5.91269 19.2287 6.03567 20.6953C6.18436 22.4684 8.09017 21.8627 9.13335 22.585C9.38104 22.7565 9.39475 23.25 9.1587 23.25H1.26411V23.2497ZM2.85612 22.7246H7.7654L6.12749 22.0481C5.64307 21.7562 5.5492 21.0746 5.50501 20.5635C5.3851 19.1758 5.34913 15.1511 5.70097 13.9224C6.00895 12.8479 6.94627 12.9109 7.80822 12.331C11.7446 9.68207 9.32623 4.38627 8.7339 0.699146C8.70923 0.522552 8.64277 0.54594 8.49991 0.530687C6.44198 0.310707 3.98529 0.716772 1.88214 0.533738L1.72969 0.797782C1.18326 4.44017 -1.17237 9.49971 2.5471 12.2005C3.87669 13.1658 4.77118 12.7208 4.97776 14.7843C5.08979 15.9042 5.15111 20.3387 4.92192 21.2905C4.83319 21.659 4.60263 21.903 4.30903 22.1281L2.85612 22.7253V22.7246Z" fill="#411F10"/>
</svg>
